<?xml version="1.0" encoding="UTF-8" standalone="no"?>
<!-- Created with Inkscape (http://www.inkscape.org/) -->

<svg
   xmlns:dc="http://purl.org/dc/elements/1.1/"
   xmlns:cc="http://creativecommons.org/ns#"
   xmlns:rdf="http://www.w3.org/1999/02/22-rdf-syntax-ns#"
   xmlns:svg="http://www.w3.org/2000/svg"
   xmlns="http://www.w3.org/2000/svg"
   xmlns:sodipodi="http://sodipodi.sourceforge.net/DTD/sodipodi-0.dtd"
   xmlns:inkscape="http://www.inkscape.org/namespaces/inkscape"
   width="548.36127mm"
   height="92.112404mm"
   viewBox="0 0 1943.0124 326.38253"
   id="svg2"
   version="1.1"
   inkscape:version="0.91 r13725"
   sodipodi:docname="VETMENTS logo.svg">
  <defs
     id="defs4" />
  <sodipodi:namedview
     id="base"
     pagecolor="#ffffff"
     bordercolor="#666666"
     borderopacity="1.0"
     inkscape:pageopacity="0.0"
     inkscape:pageshadow="2"
     inkscape:zoom="0.35355339"
     inkscape:cx="1094.4841"
     inkscape:cy="168.0702"
     inkscape:document-units="px"
     inkscape:current-layer="layer2"
     showgrid="false"
     fit-margin-top="0"
     fit-margin-left="0"
     fit-margin-right="0"
     fit-margin-bottom="0"
     inkscape:window-width="1280"
     inkscape:window-height="962"
     inkscape:window-x="-8"
     inkscape:window-y="-8"
     inkscape:window-maximized="1" />
  <metadata
     id="metadata7">
    <rdf:RDF>
      <cc:Work
         rdf:about="">
        <dc:format>image/svg+xml</dc:format>
        <dc:type
           rdf:resource="http://purl.org/dc/dcmitype/StillImage" />
        <dc:title></dc:title>
      </cc:Work>
    </rdf:RDF>
  </metadata>
  <g
     inkscape:groupmode="layer"
     id="layer2"
     inkscape:label="Layer 2"
     transform="translate(260.71636,-421.8605)">
    <g
       id="g4198"
       transform="matrix(7.2704056,0,0,7.2704056,-1079.6257,-3920.192)">
      <path
         sodipodi:nodetypes="cccccccc"
         inkscape:connector-curvature="0"
         id="path4148"
         d="m 113.26335,599.94014 9.34392,40.65863 9.72271,0 8.71257,-40.78491 -7.07107,0 -6.18718,30.30458 -6.05036,-30.21254 z"
         style="fill:#000000;fill-rule:evenodd;stroke:#000000;stroke-width:1px;stroke-linecap:butt;stroke-linejoin:miter;stroke-opacity:1" />
      <path
         sodipodi:nodetypes="cccccccccccccc"
         inkscape:connector-curvature="0"
         id="path4150"
         d="m 152.67638,634.15257 0.0446,-11.96144 13.44587,-0.0217 0,-5.73106 -13.40118,0 -0.0893,0.0433 0,-10.11621 14.42862,-0.076 0.0447,-6.52343 -21.75461,0.0433 -0.0446,40.59513 21.79928,0 -0.0289,-6.33118 z"
         style="fill:#000000;fill-rule:evenodd;stroke:#000000;stroke-width:0.98648381px;stroke-linecap:butt;stroke-linejoin:miter;stroke-opacity:1" />
      <path
         sodipodi:nodetypes="cccccccccccccc"
         inkscape:connector-curvature="0"
         id="path4150-2"
         d="m 207.54675,633.8322 0.0446,-11.96144 13.44587,-0.0217 0,-5.73106 -13.40118,0 -0.0893,0.0433 0,-10.11621 14.42862,-0.076 0.0447,-6.52343 -21.75461,0.0433 -0.0446,40.59513 21.79928,0 -0.0289,-6.33118 z"
         style="fill:#000000;fill-rule:evenodd;stroke:#000000;stroke-width:0.98648381px;stroke-linecap:butt;stroke-linejoin:miter;stroke-opacity:1" />
      <path
         sodipodi:nodetypes="cccccccccccccc"
         inkscape:connector-curvature="0"
         id="path4150-5"
         d="m 275.73205,634.08473 0.0446,-11.96144 13.44587,-0.0217 0,-5.73106 -13.40118,0 -0.0893,0.0433 0,-10.11621 14.42862,-0.076 0.0447,-6.52343 -21.75461,0.0433 -0.0446,40.59513 21.79928,0 -0.0289,-6.33118 z"
         style="fill:#000000;fill-rule:evenodd;stroke:#000000;stroke-width:0.98648381px;stroke-linecap:butt;stroke-linejoin:miter;stroke-opacity:1" />
      <path
         sodipodi:nodetypes="ccccccccccc"
         inkscape:connector-curvature="0"
         id="path4173"
         d="m 195.80356,599.2372 -24.99999,0 0,6.875 9.13538,0 -0.0282,0.0893 0,34.19643 7.05358,0 0,-34.46429 -0.20685,0.17856 9.04733,-0.0497 z"
         style="fill:#000000;fill-rule:evenodd;stroke:#000000;stroke-width:1px;stroke-linecap:butt;stroke-linejoin:miter;stroke-opacity:1" />
      <path
         sodipodi:nodetypes="ccccccccccc"
         inkscape:connector-curvature="0"
         id="path4173-8"
         d="m 350.90043,598.93147 -24.99999,0 0,6.875 9.13538,0 -0.0282,0.0893 0,34.19643 7.05358,0 0,-34.46429 -0.20685,0.17856 9.04733,-0.0497 z"
         style="fill:#000000;fill-rule:evenodd;stroke:#000000;stroke-width:1px;stroke-linecap:butt;stroke-linejoin:miter;stroke-opacity:1" />
      <path
         sodipodi:nodetypes="ccccccccccccccc"
         inkscape:connector-curvature="0"
         id="path4190"
         d="m 234.35539,640.59877 -6.56599,0 0,-41.54252 11.23794,0 6.06092,29.42069 6.22664,-29.42069 11.45103,0 0,41.54252 -6.31345,0 -0.50508,-32.32487 -7.70241,32.32487 m 0,0 -5.68211,0 -7.95496,-32.57742 -0.25253,32.57742"
         style="fill:#000000;fill-rule:evenodd;stroke:#000000;stroke-width:1px;stroke-linecap:butt;stroke-linejoin:miter;stroke-opacity:1" />
      <path
         sodipodi:nodetypes="ccccccccccc"
         inkscape:connector-curvature="0"
         id="path4194"
         d="m 295.13617,599.00092 0.0424,41.93271 6.69643,0 0,-29.375 10.84439,29.34185 8.70918,0.0331 0,-41.96428 -6.78571,0 0,28.57143 -9.87373,-28.57143 z"
         style="fill:#000000;fill-rule:evenodd;stroke:#000000;stroke-width:1px;stroke-linecap:butt;stroke-linejoin:miter;stroke-opacity:1" />
      <path
         sodipodi:nodetypes="ccssscssssssscssssssscssssccsssssscssssssscsccccsssssssssc"
         inkscape:connector-curvature="0"
         id="path4196"
         d="m 371.05428,609.74369 6.80591,0 c 0,0 0.24253,-3.15824 -0.0884,-4.68458 -0.25166,-1.16072 -0.6741,-2.34149 -1.41422,-3.27037 -1.13111,-1.4196 -2.70822,-2.53793 -4.38908,-3.22303 -1.85569,-0.75635 -5.95235,-0.84283 -5.95235,-0.84283 0,0 -3.54788,0.007 -5.21492,0.53033 -1.44704,0.45432 -2.88353,1.15916 -3.97747,2.2097 -1.02047,0.97999 -1.69482,2.30612 -2.20971,3.62393 -0.54673,1.39929 -0.75325,2.92279 -0.88389,4.41941 -0.1102,1.26244 -0.0845,2.54531 0.0884,3.8007 0.1784,1.29547 0.33289,2.65998 0.97228,3.80071 0.7233,1.29043 1.94705,2.2472 3.09359,3.18198 0.97552,0.79534 3.18198,2.03292 3.18198,2.03292 0,0 2.33883,1.23821 3.50964,1.78294 0.89798,0.41778 1.80486,0.93072 2.67754,1.39905 0.65522,0.35162 1.36404,0.67997 1.85616,1.23744 0.5232,0.59267 1.37611,1.20637 1.68566,1.93382 0.37947,0.89176 0.26487,1.9619 0.34727,2.92754 0.0737,0.86388 -0.0634,1.78321 -0.44194,2.56326 -0.34609,0.71322 -0.91018,1.36159 -1.59099,1.76776 -0.85915,0.51256 -2.91681,0.44194 -2.91681,0.44194 0,0 -1.69642,-0.0561 -2.47487,-0.35355 -0.79387,-0.30331 -1.51244,-0.82136 -2.12132,-1.41422 -0.43925,-0.4277 -0.84195,-0.92986 -1.06066,-1.5026 -0.27508,-0.72038 -0.2209,-1.52825 -0.26517,-2.29809 -0.0389,-0.67653 0,-2.03294 0,-2.03294 l -7.07106,0 c 0,0 -0.34249,3.97795 0,5.92202 0.11966,0.67925 0.3611,1.34791 0.7071,1.94455 0.5034,0.86806 1.19297,1.6332 1.94455,2.29809 0.76506,0.67681 1.62305,1.28186 2.50076,1.80438 0.74758,0.44505 1.54407,0.81205 2.3606,1.11244 0.7918,0.29129 1.63588,0.44145 2.47487,0.53033 0.67387,0.0714 2.34543,0.1875 2.34543,0.1875 0,0 1.64329,0.086 2.49004,0 0.89002,-0.0904 1.79137,-0.29046 2.67754,-0.54105 0.62179,-0.17583 1.18908,-0.508 1.76777,-0.7955 0.66122,-0.32851 1.33204,-0.64837 1.94454,-1.06066 0.82863,-0.55777 1.67292,-1.13588 2.31954,-1.89721 0.71628,-0.84336 1.23711,-1.85243 1.65794,-2.87576 0.44031,-1.07071 0.70926,-2.2143 0.88388,-3.35876 0.12141,-0.79575 0.10983,-2.41237 0.10983,-2.41237 0,0 -0.0808,-2.33598 -0.4741,-3.47304 -0.35224,-1.01845 -1.60171,-2.8177 -1.60171,-2.8177 l -1.79366,-1.53921 -2.90165,-1.65793 -3.06142,-1.71155 c 0,0 -3.92927,-1.94395 -5.65685,-3.27037 -0.79318,-0.60899 -1.63468,-1.24772 -2.12132,-2.12132 -0.5008,-0.89902 -0.69202,-1.97623 -0.70711,-3.00521 -0.0194,-1.32306 0.013,-2.82203 0.79549,-3.88908 0.53814,-0.73385 1.51538,-1.06259 2.38649,-1.32583 0.70733,-0.21375 1.47871,-0.2847 2.20971,-0.17678 0.71987,0.10628 1.41667,0.40855 2.03293,0.7955 0.4767,0.29932 0.87258,0.72043 1.23744,1.14905 0.41314,0.48535 0.84478,0.99129 1.06066,1.59099 0.29094,0.80821 0.26514,2.56326 0.26514,2.56326 z"
         style="fill:#000000;fill-rule:evenodd;stroke:#000000;stroke-width:1px;stroke-linecap:butt;stroke-linejoin:miter;stroke-opacity:1" />
    </g>
  </g>
</svg>
